{
  "accessors": [
    {
      "bufferView": 2,
      "componentType": 5126,
      "count": 3391,
      "max": [
        19.5564022064209,
        23.60167694091797,
        22.645227432250977
      ],
      "min": [
        -23.66127586364746,
        -0.7584724426269531,
        -22.645105361938477
      ],
      "type": "VEC3"
    },
    {
      "bufferView": 2,
      "byteOffset": 40692,
      "componentType": 5126,
      "count": 3391,
      "max": [
        1.0,
        1.0,
        0.9963166117668152
      ],
      "min": [
        -1.0,
        -1.0,
        -0.9959079623222351
      ],
      "type": "VEC3"
    },
    {
      "bufferView": 1,
      "componentType": 5126,
      "count": 3391,
      "max": [
        0.9921452403068542,
        0.9921875
      ],
      "min": [
        0.007812477648258209,
        0.007812482304871082
      ],
      "type": "VEC2"
    },
    {
      "bufferView": 0,
      "componentType": 5125,
      "count": 4722,
      "type": "SCALAR"
    }
  ],
  "asset": {
    "extras": {
      "author": "Denis Shikunov (https://sketchfab.com/felo3113)",
      "license": "CC-BY-4.0 (http://creativecommons.org/licenses/by/4.0/)",
      "source": "https://sketchfab.com/3d-models/campfire-30814252c0714caeab8cfdf581967d87",
      "title": "Campfire"
    },
    "generator": "Sketchfab-12.67.0",
    "version": "2.0"
  },
  "bufferViews": [
    {
      "buffer": 0,
      "byteLength": 18888,
      "name": "floatBufferViews",
      "target": 34963
    },
    {
      "buffer": 0,
      "byteLength": 27128,
      "byteOffset": 18888,
      "byteStride": 8,
      "name": "floatBufferViews",
      "target": 34962
    },
    {
      "buffer": 0,
      "byteLength": 81384,
      "byteOffset": 46016,
      "byteStride": 12,
      "name": "floatBufferViews",
      "target": 34962
    }
  ],
  "buffers": [
    {
      "byteLength": 127400,
      "uri": "scene.bin"
    }
  ],
  "images": [
    {
      "uri": "textures/Campfire_baseColor.png"
    },
    {
      "uri": "textures/Campfire_metallicRoughness.png"
    },
    {
      "uri": "textures/Campfire_emissive.png"
    }
  ],
  "materials": [
    {
      "doubleSided": true,
      "emissiveFactor": [
        1.0,
        1.0,
        1.0
      ],
      "emissiveTexture": {
        "index": 2
      },
      "name": "Campfire",
      "occlusionTexture": {
        "index": 1
      },
      "pbrMetallicRoughness": {
        "baseColorTexture": {
          "index": 0
        },
        "metallicRoughnessTexture": {
          "index": 1
        }
      }
    }
  ],
  "meshes": [
    {
      "name": "campfire_Campfire_0",
      "primitives": [
        {
          "attributes": {
            "NORMAL": 1,
            "POSITION": 0,
            "TEXCOORD_0": 2
          },
          "indices": 3,
          "material": 0,
          "mode": 4
        }
      ]
    }
  ],
  "nodes": [
    {
      "children": [
        1
      ],
      "matrix": [
        1.0,
        0.0,
        0.0,
        0.0,
        0.0,
        2.220446049250313e-16,
        -1.0,
        0.0,
        0.0,
        1.0,
        2.220446049250313e-16,
        0.0,
        0.0,
        0.0,
        0.0,
        1.0
      ],
      "name": "Sketchfab_model"
    },
    {
      "children": [
        2
      ],
      "matrix": [
        1.0,
        0.0,
        0.0,
        0.0,
        0.0,
        0.0,
        1.0,
        0.0,
        0.0,
        -1.0,
        0.0,
        0.0,
        0.0,
        0.0,
        0.0,
        1.0
      ],
      "name": "Campfire.fbx"
    },
    {
      "children": [
        3
      ],
      "name": "RootNode"
    },
    {
      "children": [
        4
      ],
      "name": "campfire"
    },
    {
      "mesh": 0,
      "name": "campfire_Campfire_0"
    }
  ],
  "samplers": [
    {
      "magFilter": 9729,
      "minFilter": 9987,
      "wrapS": 10497,
      "wrapT": 10497
    }
  ],
  "scene": 0,
  "scenes": [
    {
      "name": "Sketchfab_Scene",
      "nodes": [
        0
      ]
    }
  ],
  "textures": [
    {
      "sampler": 0,
      "source": 0
    },
    {
      "sampler": 0,
      "source": 1
    },
    {
      "sampler": 0,
      "source": 2
    }
  ]
}
